<svg xmlns="http://www.w3.org/2000/svg" width="24" height="24" viewBox="0 0 24 24" fill="none" stroke="currentColor" stroke-width="2" stroke-linecap="round" stroke-linejoin="round">
  <path d="M4.5144 14.4356L7.8831 11.067C7.9928 10.9572 8.0755 10.8234 8.1246 10.6761L8.2454 10.3137C8.4805 9.6085 9.3756 9.3972 9.9012 9.9228L11.8556 11.8772C12.3813 12.4029 12.17 13.2979 11.4647 13.533L11.1024 13.6538C10.9551 13.7029 10.8213 13.7856 10.7115 13.8954L7.3429 17.264C6.9523 17.6545 6.3192 17.6545 5.9287 17.264L4.5144 15.8498C4.1239 15.4593 4.1239 14.8261 4.5144 14.4356ZM10.8784 5.2L10.8784 2M14.9089 6.8695L17.1717 4.6068M16.5784 10.9L19.7784 10.9M9.1106 15.4962L9.1106 22M5.1106 22L13.1106 22"/>
</svg>
