<svg xmlns="http://www.w3.org/2000/svg" width="24" height="24" viewBox="0 0 24 24" fill="none" stroke="currentColor" stroke-width="2" stroke-linecap="round" stroke-linejoin="round">
  <path d="M21.8196 10.109C21.9396 10.7322 22 11.3654 22 12C22 12.6346 21.9396 13.2678 21.8196 13.891M20.2806 17.6064C19.5674 18.6598 18.6598 19.5674 17.6064 20.2806M13.891 21.8196C13.2678 21.9396 12.6346 22 12 22C11.3654 22 10.7322 21.9396 10.109 21.8196M6.3936 20.2806C5.3402 19.5674 4.4326 18.6598 3.7194 17.6064M2.1804 13.891C2.0604 13.2678 2 12.6346 2 12C2 11.3654 2.0604 10.7322 2.1804 10.109M3.7194 6.3936C4.4326 5.3402 5.3402 4.4326 6.3936 3.7194M10.109 2.1804C10.7322 2.0604 11.3654 2 12 2C12.6346 2 13.2678 2.0604 13.891 2.1804M17.6064 3.7194C18.6598 4.4326 19.5674 5.3402 20.2806 6.3936" stroke-opacity="0.4"/>
  <path d="M12 5C15.866 5 19 8.134 19 12C19 12.5523 18.5523 13 18 13L12 13C11.4477 13 11 12.5523 11 12L11 6C11 5.4477 11.4477 5 12 5Z" fill="currentColor" stroke="none"/>
</svg>
